<svg width="38" height="56" viewBox="0 0 38 56" fill="none" xmlns="http://www.w3.org/2000/svg">
<path d="M16.082 11.3213C15.6484 11.9424 15.042 12.4082 14.2627 12.7188C13.4893 13.0234 12.5869 13.1758 11.5557 13.1758C10.5127 13.1758 9.58691 12.9326 8.77832 12.4463C7.96973 11.9541 7.34277 11.2568 6.89746 10.3545C6.45801 9.45215 6.23242 8.40625 6.2207 7.2168V6.10059C6.2207 4.17285 6.66895 2.67871 7.56543 1.61816C8.46777 0.557617 9.7334 0.0273438 11.3623 0.0273438C12.6982 0.0273438 13.7734 0.370117 14.5879 1.05566C15.4023 1.73535 15.9004 2.70215 16.082 3.95605H14.3945C14.0781 2.2627 13.0703 1.41602 11.3711 1.41602C10.2402 1.41602 9.38184 1.81445 8.7959 2.61133C8.21582 3.40234 7.92285 4.55078 7.91699 6.05664V7.10254C7.91699 8.53809 8.24512 9.68066 8.90137 10.5303C9.55762 11.374 10.4453 11.7959 11.5645 11.7959C12.1973 11.7959 12.751 11.7256 13.2256 11.585C13.7002 11.4443 14.0928 11.207 14.4033 10.873V7.99902H11.4414V6.62793H16.082V11.3213ZM22.5947 13.1758C21.3057 13.1758 20.2568 12.7539 19.4482 11.9102C18.6396 11.0605 18.2354 9.92676 18.2354 8.50879V8.20996C18.2354 7.2666 18.4141 6.42578 18.7715 5.6875C19.1348 4.94336 19.6387 4.36328 20.2832 3.94727C20.9336 3.52539 21.6367 3.31445 22.3926 3.31445C23.6289 3.31445 24.5898 3.72168 25.2754 4.53613C25.9609 5.35059 26.3037 6.5166 26.3037 8.03418V8.71094H19.8613C19.8848 9.64844 20.1572 10.4072 20.6787 10.9873C21.2061 11.5615 21.874 11.8486 22.6826 11.8486C23.2568 11.8486 23.7432 11.7314 24.1416 11.4971C24.54 11.2627 24.8887 10.9521 25.1875 10.5654L26.1807 11.3389C25.3838 12.5635 24.1885 13.1758 22.5947 13.1758ZM22.3926 4.65039C21.7363 4.65039 21.1855 4.89062 20.7402 5.37109C20.2949 5.8457 20.0195 6.51367 19.9141 7.375H24.6777V7.25195C24.6309 6.42578 24.4082 5.78711 24.0098 5.33594C23.6113 4.87891 23.0723 4.65039 22.3926 4.65039ZM30.3994 1.1875V3.49023H32.1748V4.74707H30.3994V10.6445C30.3994 11.0254 30.4785 11.3125 30.6367 11.5059C30.7949 11.6934 31.0645 11.7871 31.4453 11.7871C31.6328 11.7871 31.8906 11.752 32.2188 11.6816V13C31.791 13.1172 31.375 13.1758 30.9707 13.1758C30.2441 13.1758 29.6963 12.9561 29.3271 12.5166C28.958 12.0771 28.7734 11.4531 28.7734 10.6445V4.74707H27.042V3.49023H28.7734V1.1875H30.3994ZM10.2725 29.9395C10.1143 31.293 9.61328 32.3389 8.76953 33.0771C7.93164 33.8096 6.81543 34.1758 5.4209 34.1758C3.90918 34.1758 2.69629 33.6338 1.78223 32.5498C0.874023 31.4658 0.419922 30.0156 0.419922 28.1992V26.9688C0.419922 25.7793 0.630859 24.7334 1.05273 23.8311C1.48047 22.9287 2.08398 22.2373 2.86328 21.7568C3.64258 21.2705 4.54492 21.0273 5.57031 21.0273C6.92969 21.0273 8.01953 21.4082 8.83984 22.1699C9.66016 22.9258 10.1377 23.9746 10.2725 25.3164H8.57617C8.42969 24.2969 8.11035 23.5586 7.61816 23.1016C7.13184 22.6445 6.44922 22.416 5.57031 22.416C4.49219 22.416 3.64551 22.8145 3.03027 23.6113C2.4209 24.4082 2.11621 25.542 2.11621 27.0127V28.252C2.11621 29.6406 2.40625 30.7451 2.98633 31.5654C3.56641 32.3857 4.37793 32.7959 5.4209 32.7959C6.3584 32.7959 7.07617 32.585 7.57422 32.1631C8.07812 31.7354 8.41211 30.9941 8.57617 29.9395H10.2725ZM14.7637 21.2031L18.9473 31.6445L23.1309 21.2031H25.3193V34H23.6318V29.0166L23.79 23.6377L19.5889 34H18.2969L14.1045 23.6641L14.2715 29.0166V34H12.584V21.2031H14.7637ZM28.2988 34V21.2031H31.9111C33.0244 21.2031 34.0088 21.4492 34.8643 21.9414C35.7197 22.4336 36.3789 23.1338 36.8418 24.042C37.3105 24.9502 37.5479 25.9932 37.5537 27.1709V27.9883C37.5537 29.1953 37.3193 30.2529 36.8506 31.1611C36.3877 32.0693 35.7227 32.7666 34.8555 33.2529C33.9941 33.7393 32.9893 33.9883 31.8408 34H28.2988ZM29.9863 22.5918V32.6201H31.7617C33.0625 32.6201 34.0732 32.2158 34.7939 31.4072C35.5205 30.5986 35.8838 29.4473 35.8838 27.9531V27.2061C35.8838 25.7529 35.541 24.625 34.8555 23.8223C34.1758 23.0137 33.209 22.6035 31.9551 22.5918H29.9863ZM3.3291 42.2031L7.5127 52.6445L11.6963 42.2031H13.8848V55H12.1973V50.0166L12.3555 44.6377L8.1543 55H6.8623L2.66992 44.6641L2.83691 50.0166V55H1.14941V42.2031H3.3291ZM20.6348 49.2959C19.1875 48.8799 18.1328 48.3701 17.4707 47.7666C16.8145 47.1572 16.4863 46.4072 16.4863 45.5166C16.4863 44.5088 16.8877 43.6768 17.6904 43.0205C18.499 42.3584 19.5479 42.0273 20.8369 42.0273C21.7158 42.0273 22.498 42.1973 23.1836 42.5371C23.875 42.877 24.4082 43.3457 24.7832 43.9434C25.1641 44.541 25.3545 45.1943 25.3545 45.9033H23.6582C23.6582 45.1299 23.4121 44.5234 22.9199 44.084C22.4277 43.6387 21.7334 43.416 20.8369 43.416C20.0049 43.416 19.3545 43.6006 18.8857 43.9697C18.4229 44.333 18.1914 44.8398 18.1914 45.4902C18.1914 46.0117 18.4111 46.4541 18.8506 46.8174C19.2959 47.1748 20.0488 47.5029 21.1094 47.8018C22.1758 48.1006 23.0078 48.4316 23.6055 48.7949C24.209 49.1523 24.6543 49.5713 24.9414 50.0518C25.2344 50.5322 25.3809 51.0977 25.3809 51.748C25.3809 52.7852 24.9766 53.6172 24.168 54.2441C23.3594 54.8652 22.2783 55.1758 20.9248 55.1758C20.0459 55.1758 19.2256 55.0088 18.4639 54.6748C17.7021 54.335 17.1133 53.8721 16.6973 53.2861C16.2871 52.7002 16.082 52.0352 16.082 51.291H17.7783C17.7783 52.0645 18.0625 52.6768 18.6309 53.1279C19.2051 53.5732 19.9697 53.7959 20.9248 53.7959C21.8154 53.7959 22.498 53.6143 22.9727 53.251C23.4473 52.8877 23.6846 52.3926 23.6846 51.7656C23.6846 51.1387 23.4648 50.6553 23.0254 50.3154C22.5859 49.9697 21.7891 49.6299 20.6348 49.2959ZM37 53.3213C36.5664 53.9424 35.96 54.4082 35.1807 54.7188C34.4072 55.0234 33.5049 55.1758 32.4736 55.1758C31.4307 55.1758 30.5049 54.9326 29.6963 54.4463C28.8877 53.9541 28.2607 53.2568 27.8154 52.3545C27.376 51.4521 27.1504 50.4062 27.1387 49.2168V48.1006C27.1387 46.1729 27.5869 44.6787 28.4834 43.6182C29.3857 42.5576 30.6514 42.0273 32.2803 42.0273C33.6162 42.0273 34.6914 42.3701 35.5059 43.0557C36.3203 43.7354 36.8184 44.7021 37 45.9561H35.3125C34.9961 44.2627 33.9883 43.416 32.2891 43.416C31.1582 43.416 30.2998 43.8145 29.7139 44.6113C29.1338 45.4023 28.8408 46.5508 28.835 48.0566V49.1025C28.835 50.5381 29.1631 51.6807 29.8193 52.5303C30.4756 53.374 31.3633 53.7959 32.4824 53.7959C33.1152 53.7959 33.6689 53.7256 34.1436 53.585C34.6182 53.4443 35.0107 53.207 35.3213 52.873V49.999H32.3594V48.6279H37V53.3213Z" fill="black"/>
</svg>
